<svg viewBox="0 0 400 300" xmlns="http://www.w3.org/2000/svg">
            <rect width="400" height="300" fill="#fafafa"/>

            <!-- 齿轮代表技术 -->
            <g transform="translate(120, 150)">
                <circle r="40" fill="none" stroke="#333" stroke-width="0.5"/>
                <path d="M 0 -40 L 5 -45 L -5 -45 Z M 40 0 L 45 5 L 45 -5 Z M 0 40 L 5 45 L -5 45 Z M -40 0 L -45 5 L -45 -5 Z" fill="#666" opacity="0.3"/>
                <text y="5" font-family="Noto Sans SC" font-size="9" fill="#666" text-anchor="middle">技术</text>
            </g>

            <!-- 思维符号代表哲学 -->
            <g transform="translate(280, 150)">
                <circle r="40" fill="none" stroke="#333" stroke-width="0.5"/>
                <path d="M -15 -10 Q -5 -15 5 -10 T 15 -10" stroke="#666" stroke-width="0.8" fill="none"/>
                <circle cx="0" cy="5" r="8" fill="none" stroke="#666" stroke-width="0.8"/>
                <line x1="-6" y1="11" x2="-10" y2="20" stroke="#666" stroke-width="0.8"/>
                <line x1="6" y1="11" x2="10" y2="20" stroke="#666" stroke-width="0.8"/>
                <text y="40" font-family="Noto Sans SC" font-size="9" fill="#666" text-anchor="middle">哲学</text>
            </g>

            <!-- 连接与融合 -->
            <path d="M 160 150 L 240 150" stroke="#999" stroke-width="1" fill="none"/>
            <circle cx="200" cy="150" r="15" fill="#fafafa" stroke="#333" stroke-width="0.8"/>
            <text x="200" y="155" font-family="Noto Sans SC" font-size="8" fill="#333" text-anchor="middle">融合</text>

            <!-- 双向箭头 -->
            <path d="M 165 145 L 170 150 L 165 155" stroke="#666" stroke-width="0.5" fill="none"/>
            <path d="M 235 145 L 230 150 L 235 155" stroke="#666" stroke-width="0.5" fill="none"/>

            <text x="200" y="280" font-family="Noto Serif SC, serif" font-size="12" fill="#333" text-anchor="middle" opacity="0.7">美的技术哲学</text>
        </svg>