<svg viewBox="0 0 400 300" xmlns="http://www.w3.org/2000/svg">
            <rect width="400" height="300" fill="#fafafa"/>

            <!-- 中心：人类 -->
            <circle cx="200" cy="150" r="25" fill="none" stroke="#333" stroke-width="0.8"/>
            <text x="200" y="155" font-family="Noto Sans SC" font-size="9" fill="#333" text-anchor="middle">人</text>

            <!-- 智能环绕 -->
            <circle cx="200" cy="150" r="60" fill="none" stroke="#999" stroke-width="0.5" stroke-dasharray="3,3"/>

            <!-- AI节点 -->
            <g transform="translate(200, 90)">
                <rect x="-12" y="-8" width="24" height="16" fill="none" stroke="#666" stroke-width="0.5"/>
                <text x="0" y="4" font-family="Noto Sans SC" font-size="7" fill="#666" text-anchor="middle">AI</text>
            </g>

            <!-- 数字化节点 -->
            <g transform="translate(260, 120)">
                <rect x="-15" y="-8" width="30" height="16" fill="none" stroke="#666" stroke-width="0.5"/>
                <text x="0" y="4" font-family="Noto Sans SC" font-size="7" fill="#666" text-anchor="middle">数字化</text>
            </g>

            <!-- 具身体验节点 -->
            <g transform="translate(260, 180)">
                <rect x="-18" y="-8" width="36" height="16" fill="none" stroke="#666" stroke-width="0.5"/>
                <text x="0" y="4" font-family="Noto Sans SC" font-size="7" fill="#666" text-anchor="middle">具身体验</text>
            </g>

            <!-- 精神慰籍节点 -->
            <g transform="translate(200, 210)">
                <rect x="-18" y="-8" width="36" height="16" fill="none" stroke="#666" stroke-width="0.5"/>
                <text x="0" y="4" font-family="Noto Sans SC" font-size="7" fill="#666" text-anchor="middle">精神慰籍</text>
            </g>

            <!-- 医美节点 -->
            <g transform="translate(140, 180)">
                <rect x="-12" y="-8" width="24" height="16" fill="none" stroke="#666" stroke-width="0.5"/>
                <text x="0" y="4" font-family="Noto Sans SC" font-size="7" fill="#666" text-anchor="middle">医美</text>
            </g>

            <!-- 神话节点 -->
            <g transform="translate(140, 120)">
                <rect x="-12" y="-8" width="24" height="16" fill="none" stroke="#666" stroke-width="0.5"/>
                <text x="0" y="4" font-family="Noto Sans SC" font-size="7" fill="#666" text-anchor="middle">神话</text>
            </g>

            <!-- 连接线 -->
            <line x1="200" y1="125" x2="200" y2="98" stroke="#ccc" stroke-width="0.3"/>
            <line x1="220" y1="135" x2="248" y2="120" stroke="#ccc" stroke-width="0.3"/>
            <line x1="225" y1="155" x2="242" y2="172" stroke="#ccc" stroke-width="0.3"/>
            <line x1="200" y1="175" x2="200" y2="202" stroke="#ccc" stroke-width="0.3"/>
            <line x1="175" y1="165" x2="152" y2="180" stroke="#ccc" stroke-width="0.3"/>
            <line x1="180" y1="140" x2="152" y2="128" stroke="#ccc" stroke-width="0.3"/>

            <text x="200" y="270" font-family="Noto Serif SC, serif" font-size="11" fill="#333" text-anchor="middle" opacity="0.7">智能时代的医美神话</text>
            <text x="200" y="285" font-family="Noto Sans SC" font-size="9" fill="#999" text-anchor="middle">与具身体验的精神慰籍</text>
        </svg>